<svg width="271" height="262" viewBox="0 0 271 262" fill="none" xmlns="http://www.w3.org/2000/svg">
<path fill-rule="evenodd" clip-rule="evenodd" d="M260.5 38.5001C260.832 26.4816 260.499 14.4816 259.5 2.50006C199.657 62.0112 139.99 121.344 80.4998 180.5C75.1665 175.5 69.8331 170.5 64.4998 165.5C63.1665 163.833 61.8331 162.167 60.4998 160.5C61.4957 160.414 62.329 160.748 62.9998 161.5C74.7018 149.965 86.2018 138.298 97.4998 126.5C103.465 121.036 109.298 115.37 115 109.5C115.667 108.5 115.667 107.5 115 106.5C79.9998 71.5001 44.9998 36.5001 9.99985 1.50006C9.49995 13.8289 9.33335 26.1623 9.49985 38.5001C8.50445 26.0111 8.17115 13.3444 8.49985 0.500056C21.1709 0.333506 33.8375 0.500176 46.4998 1.00006C75.9998 30.5001 105.5 60.0001 135 89.5001C164.5 60.0001 194 30.5001 223.5 1.00006C236.162 0.500176 248.829 0.333506 261.5 0.500056C261.829 13.3444 261.495 26.0111 260.5 38.5001Z" fill="#CBD5DB"/>
<path fill-rule="evenodd" clip-rule="evenodd" d="M97.4999 126.5C68.4999 96.833 39.1666 67.5 9.49992 38.5C9.33342 26.1622 9.50002 13.8288 9.99992 1.5C44.9999 36.5 79.9999 71.5 115 106.5C115.667 107.5 115.667 108.5 115 109.5C109.298 115.37 103.465 121.036 97.4999 126.5Z" fill="#99A9B3"/>
<path fill-rule="evenodd" clip-rule="evenodd" d="M260.5 38.5C231.004 67.3289 202.004 96.329 173.5 125.5C166.721 131.709 160.387 138.376 154.5 145.5C165.854 157.521 177.521 169.188 189.5 180.5C189.5 180.833 189.5 181.167 189.5 181.5C182.889 186.774 176.555 192.44 170.5 198.5C169.761 198.631 169.094 198.464 168.5 198C158.015 186.349 147.015 175.182 135.5 164.5C124.014 175.486 112.681 186.652 101.5 198C100.906 198.464 100.239 198.631 99.5 198.5C92.556 193.225 86.2228 187.225 80.5 180.5C139.99 121.344 199.657 62.0111 259.5 2.5C260.499 14.4815 260.832 26.4815 260.5 38.5Z" fill="#99A9B3"/>
<path fill-rule="evenodd" clip-rule="evenodd" d="M173.5 125.5C173.351 126.552 173.517 127.552 174 128.5C185.086 140.09 196.586 151.09 208.5 161.5C202.5 168.167 196.167 174.5 189.5 180.5C177.521 169.188 165.854 157.521 154.5 145.5C160.387 138.376 166.721 131.709 173.5 125.5Z" fill="#CBD5DB"/>
<path fill-rule="evenodd" clip-rule="evenodd" d="M60.5 160.5C61.8333 162.167 63.1667 163.833 64.5 165.5C61.4639 164.638 59.1305 162.805 57.5 160C44.2212 157.774 39.8879 162.941 44.5 175.5C42.0728 173.492 41.0728 170.826 41.5 167.5C42.0083 161.155 45.5083 157.488 52 156.5C55.1802 157.174 58.0136 158.508 60.5 160.5Z" fill="#B97462"/>
<path fill-rule="evenodd" clip-rule="evenodd" d="M64.5 165.5C69.8333 170.5 75.1667 175.5 80.5 180.5C86.2228 187.225 92.556 193.225 99.5 198.5C99.5 199.167 99.5 199.833 99.5 200.5C99.685 202.196 100.519 203.529 102 204.5C102.499 208.486 102.666 212.486 102.5 216.5C101.657 218.173 100.324 219.34 98.5 220C95.5 220.667 92.5 220.667 89.5 220C84.6646 215.997 79.9979 211.83 75.5 207.5C68.8333 200.167 61.8333 193.167 54.5 186.5C51.1667 182.833 47.8333 179.167 44.5 175.5C39.8879 162.941 44.2212 157.774 57.5 160C59.1305 162.805 61.4639 164.638 64.5 165.5Z" fill="#BC6852"/>
<path fill-rule="evenodd" clip-rule="evenodd" d="M227.5 163.5C227.577 167.215 227.244 170.881 226.5 174.5C222.833 178.5 219.167 182.5 215.5 186.5C208.167 193.167 201.167 200.167 194.5 207.5C190.369 211.13 186.369 214.963 182.5 219C169.617 222.79 164.117 217.956 166 204.5C167.371 202.959 168.871 201.625 170.5 200.5C176.833 194.5 183.167 188.5 189.5 182.5C197.298 175.202 204.965 167.702 212.5 160C216.167 159.333 219.833 159.333 223.5 160C224.384 161.72 225.717 162.886 227.5 163.5Z" fill="#BD6852"/>
<path fill-rule="evenodd" clip-rule="evenodd" d="M227.5 163.5C230.155 167.289 229.822 170.956 226.5 174.5C227.244 170.881 227.577 167.215 227.5 163.5Z" fill="#BD806F"/>
<path fill-rule="evenodd" clip-rule="evenodd" d="M227.5 163.5C225.717 162.886 224.384 161.72 223.5 160C219.833 159.333 216.167 159.333 212.5 160C204.965 167.702 197.298 175.202 189.5 182.5C189.5 182.167 189.5 181.833 189.5 181.5C189.5 181.167 189.5 180.833 189.5 180.5C196.167 174.5 202.5 168.167 208.5 161.5C213.075 156.015 218.409 155.182 224.5 159C226.141 160.129 227.141 161.629 227.5 163.5Z" fill="#B57361"/>
<path fill-rule="evenodd" clip-rule="evenodd" d="M189.5 181.5C189.5 181.833 189.5 182.167 189.5 182.5C183.167 188.5 176.833 194.5 170.5 200.5C170.5 199.833 170.5 199.167 170.5 198.5C176.555 192.44 182.889 186.774 189.5 181.5Z" fill="#AB837B"/>
<path fill-rule="evenodd" clip-rule="evenodd" d="M215.5 186.5C226.737 199.314 237.737 212.314 248.5 225.5C244.5 231.5 239.5 236.5 233.5 240.5C232.5 239.833 231.5 239.167 230.5 238.5C226.86 235.527 223.527 232.194 220.5 228.5C218.363 225.027 215.363 222.694 211.5 221.5C209.833 220.5 208.5 219.167 207.5 217.5C205.037 213.7 201.704 211.033 197.5 209.5C196.5 208.833 195.5 208.167 194.5 207.5C201.167 200.167 208.167 193.167 215.5 186.5Z" fill="#642317"/>
<path fill-rule="evenodd" clip-rule="evenodd" d="M54.5 186.5C61.8333 193.167 68.8333 200.167 75.5 207.5C62.9396 217.94 50.6062 228.607 38.5 239.5C37.8333 239.833 37.1667 240.167 36.5 240.5C35.391 240.443 34.391 240.11 33.5 239.5C29.1028 235.108 25.1028 230.442 21.5 225.5C32.2523 212.354 43.2523 199.354 54.5 186.5Z" fill="#642417"/>
<path fill-rule="evenodd" clip-rule="evenodd" d="M99.5 200.5C105.928 204.965 106.928 210.298 102.5 216.5C102.666 212.486 102.499 208.486 102 204.5C100.519 203.529 99.685 202.196 99.5 200.5Z" fill="#BA7562"/>
<path fill-rule="evenodd" clip-rule="evenodd" d="M197.5 209.5C201.704 211.033 205.037 213.7 207.5 217.5C203.873 215.206 200.539 212.54 197.5 209.5Z" fill="#6D3C32"/>
<path fill-rule="evenodd" clip-rule="evenodd" d="M264.5 224.5C260.273 222.429 255.94 222.095 251.5 223.5C253.048 222.206 255.048 221.539 257.5 221.5C259.5 221.667 261.5 221.833 263.5 222C264.252 222.671 264.586 223.504 264.5 224.5Z" fill="#FEEFD8"/>
<path fill-rule="evenodd" clip-rule="evenodd" d="M211.5 221.5C215.363 222.694 218.363 225.027 220.5 228.5C217.208 226.542 214.208 224.209 211.5 221.5Z" fill="#6D3B32"/>
<path fill-rule="evenodd" clip-rule="evenodd" d="M8.5 223.5C11.3035 222.362 14.3035 222.195 17.5 223C18.056 223.383 18.3893 223.883 18.5 224.5C15.2356 223.676 11.9023 223.342 8.5 223.5Z" fill="#F2C387"/>
<path fill-rule="evenodd" clip-rule="evenodd" d="M8.5 223.5C11.9023 223.342 15.2356 223.676 18.5 224.5C19.391 225.11 20.391 225.443 21.5 225.5C25.1028 230.442 29.1028 235.108 33.5 239.5C35.3907 242.729 36.724 246.229 37.5 250C36.1999 252.437 35.1999 254.937 34.5 257.5C32.3337 257.579 30.3337 258.246 28.5 259.5C25.8172 258.49 23.1505 257.49 20.5 256.5C18.8333 255.167 17.1667 253.833 15.5 252.5C12.1667 248.833 8.8333 245.167 5.5 241.5C4.3187 237.257 3.652 232.924 3.5 228.5C5.5 227.167 7.1667 225.5 8.5 223.5Z" fill="#F9AA41"/>
<path fill-rule="evenodd" clip-rule="evenodd" d="M266.5 238.5C263.902 242.438 260.902 246.105 257.5 249.5C254.416 252.079 251.416 254.913 248.5 258C247.099 258.41 245.766 258.91 244.5 259.5C241.43 259.632 238.43 259.299 235.5 258.5C234.5 257.833 233.5 257.167 232.5 256.5C232.5 255.833 232.5 255.167 232.5 254.5C232.307 250.434 232.64 246.434 233.5 242.5C233.5 241.833 233.5 241.167 233.5 240.5C239.5 236.5 244.5 231.5 248.5 225.5C249.609 225.443 250.609 225.11 251.5 224.5C262.873 222.204 267.873 226.871 266.5 238.5Z" fill="#F9AA42"/>
<path fill-rule="evenodd" clip-rule="evenodd" d="M8.5 223.5C7.1667 225.5 5.5 227.167 3.5 228.5C3.5569 227.391 3.8902 226.391 4.5 225.5C5.6049 224.4 6.9382 223.733 8.5 223.5Z" fill="#EFB76E"/>
<path fill-rule="evenodd" clip-rule="evenodd" d="M4.49982 225.5C3.89002 226.391 3.55672 227.391 3.49982 228.5C2.10222 229.777 1.43552 231.443 1.49982 233.5C1.88627 235.932 2.55292 238.266 3.49982 240.5C2.25002 240.423 1.41673 239.756 0.999817 238.5C0.174547 234.789 0.341218 231.122 1.49982 227.5C2.26502 226.388 3.26502 225.721 4.49982 225.5Z" fill="#FEEED5"/>
<path fill-rule="evenodd" clip-rule="evenodd" d="M3.49985 228.5C3.65185 232.924 4.31855 237.257 5.49985 241.5C4.83315 241.167 4.16655 240.833 3.49985 240.5C2.55295 238.266 1.8863 235.932 1.49985 233.5C1.43555 231.443 2.10225 229.777 3.49985 228.5Z" fill="#F1B25F"/>
<path fill-rule="evenodd" clip-rule="evenodd" d="M264.5 224.5C265.864 226.191 267.197 227.858 268.5 229.5C268.932 232.877 268.265 235.877 266.5 238.5C267.873 226.871 262.873 222.204 251.5 224.5C251.5 224.167 251.5 223.833 251.5 223.5C255.94 222.095 260.273 222.429 264.5 224.5Z" fill="#EFB365"/>
<path fill-rule="evenodd" clip-rule="evenodd" d="M38.5 239.5C40.4264 244.604 40.9264 249.938 40 255.5C38.7292 256.883 37.2292 257.883 35.5 258.5C35.7822 257.222 36.4489 256.222 37.5 255.5C38.1174 255.389 38.6174 255.056 39 254.5C39.6667 251.167 39.6667 247.833 39 244.5C38.6174 243.944 38.1174 243.611 37.5 243.5C36.8902 242.609 36.5569 241.609 36.5 240.5C37.1667 240.167 37.8333 239.833 38.5 239.5Z" fill="#FEEDD6"/>
<path fill-rule="evenodd" clip-rule="evenodd" d="M3.5 240.5C4.1667 240.833 4.8333 241.167 5.5 241.5C8.8333 245.167 12.1667 248.833 15.5 252.5C10.5 249.5 6.5 245.5 3.5 240.5Z" fill="#FFEACC"/>
<path fill-rule="evenodd" clip-rule="evenodd" d="M268.5 229.5C269.117 229.611 269.617 229.944 270 230.5C270.818 233.227 270.652 235.894 269.5 238.5C266.085 242.92 262.085 246.586 257.5 249.5C260.902 246.105 263.902 242.438 266.5 238.5C268.265 235.877 268.932 232.877 268.5 229.5Z" fill="#FEEDD2"/>
<path fill-rule="evenodd" clip-rule="evenodd" d="M230.5 238.5C231.5 239.167 232.5 239.833 233.5 240.5C233.5 241.167 233.5 241.833 233.5 242.5C231.32 244.031 230.32 246.198 230.5 249C230.393 251.221 231.06 253.054 232.5 254.5C232.5 255.167 232.5 255.833 232.5 256.5C227.658 252.031 227.325 247.031 231.5 241.5C230.873 240.583 230.539 239.583 230.5 238.5Z" fill="#FDF1DE"/>
<path fill-rule="evenodd" clip-rule="evenodd" d="M37.5 243.5C38.1174 243.611 38.6174 243.944 39 244.5C39.6667 247.833 39.6667 251.167 39 254.5C38.6174 255.056 38.1174 255.389 37.5 255.5C38.8333 251.5 38.8333 247.5 37.5 243.5Z" fill="#F1BF7E"/>
<path fill-rule="evenodd" clip-rule="evenodd" d="M33.5 239.5C34.391 240.11 35.391 240.443 36.5 240.5C36.5569 241.609 36.8902 242.609 37.5 243.5C38.8333 247.5 38.8333 251.5 37.5 255.5C36.4489 256.222 35.7822 257.222 35.5 258.5C30.7983 261.081 26.1316 261.081 21.5 258.5C21.1667 257.833 20.8333 257.167 20.5 256.5C23.1505 257.49 25.8172 258.49 28.5 259.5C30.3337 258.246 32.3337 257.579 34.5 257.5C35.1999 254.937 36.1999 252.437 37.5 250C36.724 246.229 35.3907 242.729 33.5 239.5Z" fill="#F3AD52"/>
<path fill-rule="evenodd" clip-rule="evenodd" d="M233.5 242.5C232.64 246.434 232.307 250.434 232.5 254.5C231.06 253.054 230.393 251.221 230.5 249C230.32 246.198 231.32 244.031 233.5 242.5Z" fill="#EEB467"/>
<path fill-rule="evenodd" clip-rule="evenodd" d="M15.5 252.5C17.1667 253.833 18.8333 255.167 20.5 256.5C20.8333 257.167 21.1667 257.833 21.5 258.5C18.5 257.5 16.5 255.5 15.5 252.5Z" fill="#FFEACB"/>
<path fill-rule="evenodd" clip-rule="evenodd" d="M235.5 259.5C235.5 259.167 235.5 258.833 235.5 258.5C238.43 259.299 241.43 259.632 244.5 259.5C241.604 260.775 238.604 260.775 235.5 259.5Z" fill="#F2C07D"/>
<path fill-rule="evenodd" clip-rule="evenodd" d="M21.5 258.5C26.1316 261.081 30.7983 261.081 35.5 258.5C35.5858 259.496 35.2524 260.329 34.5 261C30.5 261.667 26.5 261.667 22.5 261C21.7476 260.329 21.4142 259.496 21.5 258.5Z" fill="#FEEFD9"/>
<path fill-rule="evenodd" clip-rule="evenodd" d="M257.5 249.5C254.065 256.297 248.732 260.297 241.5 261.5C239.048 261.461 237.048 260.794 235.5 259.5C238.604 260.775 241.604 260.775 244.5 259.5C245.766 258.91 247.099 258.41 248.5 258C251.416 254.913 254.416 252.079 257.5 249.5Z" fill="#FEEED3"/>
</svg>
